<?xml version="1.0" encoding="utf-8"?>
<!-- Generator: Adobe Illustrator 18.0.0, SVG Export Plug-In . SVG Version: 6.00 Build 0)  -->
<!DOCTYPE svg PUBLIC "-//W3C//DTD SVG 1.1//EN" "http://www.w3.org/Graphics/SVG/1.1/DTD/svg11.dtd">
<svg version="1.1" id="Ebene_1" xmlns="http://www.w3.org/2000/svg" xmlns:xlink="http://www.w3.org/1999/xlink" x="0px" y="0px"
	 viewBox="0 0 160 160" enable-background="new 0 0 160 160" xml:space="preserve">
<g>
	<g>
		<path d="M-510.6,42.9h-72.6c-1.9,0-3.5-1.6-3.5-3.5c0-1.9,1.6-3.5,3.5-3.5h72.6c1.9,0,3.5,1.6,3.5,3.5
			C-507,41.3-508.6,42.9-510.6,42.9z"/>
	</g>
	<g>
		<path d="M-546.9,42.9c-1.6,0-2.9-1-3.4-2.6l-4.3-16.5l-40.3-26.2c-1.6-1.1-2.1-3.2-1-4.8s3.2-2.1,4.8-1l42.6,27.7l5.1,19
			c0.5,1.9-0.6,3.8-2.4,4.3C-546.2,42.9-546.6,42.9-546.9,42.9z"/>
	</g>
	<g>
		<path d="M-528.5,149.1h-37.1c-1.6,0-3-1.1-3.4-2.7l-20-95.5c-0.2-1,0-2.1,0.6-2.9c0.6-0.8,1.6-1.3,2.7-1.3h77.3
			c1.1,0,2.1,0.5,2.7,1.3c0.6,0.8,1,1.9,0.6,2.9l-20,95.5C-525.4,148-526.9,149.1-528.5,149.1z M-562.9,142.2h31.5l18.6-88.5h-68.6
			L-562.9,142.2z"/>
	</g>
</g>
<g>
	<g>
		<path d="M-313.8,41.4c-9.3,0-17-7.5-17-17c0-9.3,7.5-17,17-17c9.3,0,17,7.5,17,17S-304.5,41.4-313.8,41.4z M-313.8,14.6
			c-5.4,0-9.9,4.5-9.9,9.9s4.5,9.9,9.9,9.9c5.4,0,9.9-4.5,9.9-9.9C-303.8,19-308.3,14.6-313.8,14.6z"/>
	</g>
	<g>
		<path d="M-372.8,124.3h-0.3c-1,0-23.2-1.4-29.8-1.9c-3.8-0.3-14.1-1.1-14.1-9.8c0-2.1,1-8.8,12.2-9.4c5.9-0.3,20.8-1.4,25.8-1.8
			l11.2-16.2l5.8,4l-13.1,18.9l-1.6,0.2c-0.2,0-20.3,1.4-27.5,1.8c-1,0-5.6,0.5-5.6,2.6c0,0.5,0,2.2,7.5,2.7
			c6.4,0.5,27.8,1.8,29.6,1.9c1.8,0,3.4-1,4.5-2.6l11.8-17l5.8,4l-11.8,17C-365,122.2-368.8,124.3-372.8,124.3z"/>
	</g>
	<g>
		<path d="M-343,157.6L-343,157.6c-1,0-2.1-0.2-3-0.6c-3-1.3-7.4-5.8-1.3-20.3l9.6-23.7l-23.5-15.7c-9.6-8.2-6.9-16-2.7-23.4
			l0.2-0.2l15.2-22.6l-7-1.6l-19,10.1c-1.6,1-4.6,2.1-7.4,2.1c-3.4,0-5-1.6-5.6-2.6c-2.7-4-1.1-8.8,4.8-13.9l0.2-0.2l19.5-15
			c2.2-1.6,5.1-2.1,7.8-1.6l23.5,5.1c1.6,0.3,3,1.1,4.3,2.1l11.5,7.8c4.2,2.9,2.4,10.1,0.6,12.6l-19,30.6l17.8,12.2
			c4.6,3.2,6.4,9.3,4,14.2l-0.2,0.2l-16.3,31C-333.9,153.4-338.2,157.6-343,157.6z M-343.2,150.6c0.2,0,0.2,0,0.2,0
			c0.3,0,2.9-0.3,7.8-9.3l16.2-30.9c0.8-2.1,0.2-4.3-1.6-5.6l-23.4-16l22.7-36.3c0.5-0.6,0.8-2.6,0.8-3.4l-11.5-7.8
			c-0.5-0.3-1-0.6-1.4-0.8l-23.5-5.1c-0.8-0.2-1.8,0-2.4,0.5l-19.2,14.7c-2.4,2.1-3.4,3.5-3.5,4.2c1.1,0,2.7-0.5,3.7-1.1l0.2-0.2
			l21.4-11.4l19.7,4.3l-20.8,30.9c-3.8,6.6-4.2,9.8,1.1,14.4l27.8,18.4l-11.8,29.1C-344.3,147.4-343.5,150.1-343.2,150.6z"/>
	</g>
	<g>
		<path d="M-313.4,85.4h-0.3c-3.8-0.5-7-3.7-8.3-6.6l-5.3-12.5l6.4-2.7l5.1,12.5c0.5,1.1,1.6,2.2,2.6,2.4c2.4,0,16.5-0.3,20.5-0.6
			c4.8-0.3,6.4-1,6.9-1.3c0-0.6-0.6-1.1-5.3-1.4l-18.7-1.6l-10.7-24.2l6.4-2.9l9,20.5l14.6,1.3c4.2,0.3,12,0.8,11.7,9
			c-0.3,7-10.2,7.5-13.4,7.7c-4.5,0.3-20.5,0.6-21.1,0.6L-313.4,85.4z"/>
	</g>
</g>
<g>
	<path d="M372.8-97.9c-1.8,0-3.2-1.1-3.4-2.9l-14.2-76.8l-6.7,22.6c-0.5,1.4-1.8,2.6-3.4,2.6h-41.6v-7h38.9l10.2-33.9
		c0.5-1.6,1.9-2.6,3.5-2.6c1.6,0.2,2.9,1.3,3.2,2.9l13,69.9l17.4-122.4c0.3-1.8,1.8-3,3.4-3c1.8,0,3.2,1.3,3.5,2.9l17.1,102.6
		l9.9-14.9c0.6-1,1.8-1.6,2.9-1.6h34.1v7h-32.2L414.7-132c-0.8,1.1-2.2,1.8-3.7,1.4c-1.4-0.3-2.4-1.4-2.7-2.9l-14.9-89l-17.3,121.6
		C376-99.2,374.6-97.9,372.8-97.9L372.8-97.9z"/>
</g>
<g>
	<g>
		<g>
			<path d="M192.8-129.4c-0.2,0-0.5,0-0.6,0c-0.2,0-0.5,0-0.6,0l0,0c-19.2-0.5-32.5-11-35.7-28.5c-2.4-13.8,2.7-27.5,11.5-32.6
				c0-20.3,0-54.2,0.2-68.6c0.3-19.2,15.7-24.3,23.8-24.3c0.2,0,21.8,0,22.4,26.1c0.3,12,0.2,27.7,0.2,44.3c0,7.5-0.2,14.9-0.2,22.1
				c9.8,5.1,15.4,19.7,13,34.1C223.8-140,211.2-129.9,192.8-129.4L192.8-129.4L192.8-129.4z M191.4-276.5c-1.8,0-16.6,0.6-17,17.4
				c-0.2,14.9-0.2,50.7-0.2,70.7v2.4l-2.2,0.8c-7,2.6-11.4,14.6-9.3,25.9c1.1,6.7,6.4,22.4,29.4,22.7c21.8-0.3,26.7-15.2,27.8-21.6
				c2.1-11.8-3-24.6-10.7-27.4l-2.4-0.8v-2.4c0-7.8,0-16.2,0.2-24.5c0.2-16.6,0.2-32.3-0.2-44.2C206.2-275.8,193-276.5,191.4-276.5z
				"/>
		</g>
	</g>
	<g>
		<path d="M191.4-144c-10.9,0-19.7-8.8-19.7-19.7s8.8-19.7,19.7-19.7s19.7,8.8,19.7,19.7C210.9-152.8,202.1-144,191.4-144z
			 M191.4-176.2c-7,0-12.6,5.6-12.6,12.6c0,7,5.6,12.6,12.6,12.6s12.6-5.6,12.6-12.6C204-170.6,198.2-176.2,191.4-176.2z"/>
	</g>
	<g>
		<path d="M191.4-176.2c-1.9,0-3.5-1.6-3.5-3.5v-69.1c0-1.9,1.6-3.5,3.5-3.5s3.5,1.6,3.5,3.5v69.1
			C194.7-177.8,193.3-176.2,191.4-176.2z"/>
	</g>
	<g>
		<path d="M154.2-258.9h-11.4c-1.9,0-3.5-1.6-3.5-3.5c0-1.9,1.6-3.5,3.5-3.5h11.4c1.9,0,3.5,1.6,3.5,3.5
			C157.8-260.5,156.2-258.9,154.2-258.9z"/>
	</g>
	<g>
		<path d="M154.2-227.5h-11.4c-1.9,0-3.5-1.6-3.5-3.5s1.6-3.5,3.5-3.5h11.4c1.9,0,3.5,1.6,3.5,3.5
			C157.6-229.1,156.2-227.5,154.2-227.5z"/>
	</g>
	<g>
		<path d="M154.2-196.3h-11.4c-1.9,0-3.5-1.6-3.5-3.5s1.6-3.5,3.5-3.5h11.4c1.9,0,3.5,1.6,3.5,3.5S156.2-196.3,154.2-196.3z"/>
	</g>
</g>
<g>
	<path d="M2102.9,132.2c-1.3,0-2.4-0.5-3.2-1.4L2059.4,84c-1.4-1.8-1.3-4.3,0.5-5.9c1.8-1.4,4.3-1.3,5.9,0.5l36.5,42.2l58.1-96.5
		c1.1-1.9,3.8-2.6,5.8-1.4s2.6,3.8,1.4,5.8l-61.1,101.4c-0.6,1.1-1.9,1.9-3.2,2.1C2103.2,132.2,2103,132.2,2102.9,132.2z"/>
</g>
<g>
	<g>
		<path d="M1172.5,113.3l-2.6-0.6c-4.6-1.3-9.8-2.1-14.9-2.4c-5.1-0.3-10.4-0.3-15.2,0.3l-2.6,0.3l-1-2.4c-3.2-8-4.6-17.9-3.8-28.2
			c1.8-23,13.1-40.5,26.7-40.5c0.3,0,0.8,0,1.1,0c13.9,1,23.4,20.3,21.6,44.2c-0.8,10.2-3.5,20-8,27.4L1172.5,113.3z M1148.6,103
			c2.2,0,4.5,0.2,6.7,0.3c4.6,0.3,9.3,1,13.6,2.1c3.2-6.1,5.1-13.9,5.8-22.1c1.4-19.2-5.6-36-15.2-36.6c-0.2,0-0.5,0-0.6,0
			c-8.3,0-18.2,13.8-19.7,34.1c-0.6,8.2,0.3,16,2.6,22.6C1144,103,1146.4,103,1148.6,103z"/>
	</g>
	<g>
		<path d="M1156.5,159.4c-10.1,0-18.6-13-19-29.6c0-1.6,0-3.2,0-4.6l0.2-3.2l35.8-1.1l0.3,3.2c0.2,1.6,0.3,3.2,0.3,4.6
			c0.5,17-7,30.4-17.4,30.9L1156.5,159.4z M1144.3,128.6c0,0.3,0,0.6,0,1c0.5,13.4,6.7,22.9,12,22.9h0.2c5.4-0.2,11.2-9.9,10.7-23.7
			c0-0.3,0-0.6,0-1L1144.3,128.6z"/>
	</g>
	<g>
		<path d="M1210.9,66.1l-1.3-2.2c-4.3-7.4-7.2-17.1-8-27.4c-1.9-23.7,7.7-43,21.4-44c0.3,0,0.8,0,1.1,0c13.6,0,25,17.4,26.7,40.5
			c0.8,10.2-0.6,20.3-3.8,28.2l-1,2.4l-2.6-0.3c-4.8-0.5-9.9-0.6-15.2-0.3c-5.3,0.3-10.2,1.3-14.9,2.4L1210.9,66.1z M1224.2-0.6
			c-0.2,0-0.5,0-0.6,0c-9.6,0.6-16.6,17.4-15.2,36.6c0.6,8.2,2.6,15.8,5.8,22.1c4.3-1,8.8-1.6,13.6-2.1c4.6-0.3,9.3-0.3,13.8,0
			c2.2-6.6,3-14.4,2.6-22.6C1242.6,13.1,1232.6-0.6,1224.2-0.6z"/>
	</g>
	<g>
		<path d="M1226.9,112.3h-0.3c-10.4-0.3-18.1-13.9-17.4-30.9c0-1.6,0.2-3.2,0.3-4.6l0.3-3.2l35.8,1.1l0.2,3.2c0.2,1.6,0.2,3.2,0,4.6
			C1245.3,99.2,1237,112.3,1226.9,112.3z M1216,80.8c0,0.3,0,0.6,0,1c-0.5,13.8,5.3,23.4,10.7,23.7h0.2c5.3,0,11.7-9.4,12-22.9
			c0-0.3,0-0.6,0-1L1216,80.8z"/>
	</g>
</g>
<g>
	<g>
		
			<rect x="75.3" y="-78.5" transform="matrix(0.7071 0.7071 -0.7071 0.7071 -10.5837 -68.6022)" fill="#BC311E" width="4.5" height="62.9"/>
	</g>
	<g>
		<path fill="#BC311E" d="M64.3-12.8c-0.6,0-1.1-0.2-1.6-0.6L44-32c-0.8-0.8-0.8-2.2,0-3.2c0.8-0.8,2.2-0.8,3.2,0l18.6,18.6
			c0.8,0.8,0.8,2.2,0,3.2C65.4-13,64.8-12.8,64.3-12.8z"/>
	</g>
	<g>
		<path fill="#BC311E" d="M53.9-13.8c-0.5,0-1-0.2-1.3-0.5l-7-7c-0.8-0.8-0.8-1.9,0-2.7c0.8-0.8,1.9-0.8,2.7,0l7,7
			c0.8,0.8,0.8,1.9,0,2.7C54.9-14.1,54.4-13.8,53.9-13.8z"/>
	</g>
	<g>
		<path fill="#BC311E" d="M107.7-56.8c-0.6,0-1.1-0.2-1.6-0.6L87.5-76.2c-0.8-0.8-0.8-2.2,0-3.2c0.8-0.8,2.2-0.8,3.2,0l18.6,18.6
			c0.8,0.8,0.8,2.2,0,3.2C108.8-57,108.3-56.8,107.7-56.8z"/>
	</g>
	<g>
		<path fill="#BC311E" d="M46.6-13c-0.6,0-1.1-0.2-1.6-0.6c-0.8-0.8-0.8-2.2,0-3.2l3.5-3.5c0.8-0.8,2.2-0.8,3.2,0
			c0.8,0.8,0.8,2.2,0,3.2l-3.5,3.5C47.7-13.2,47-13,46.6-13z"/>
	</g>
	<g>
		<path fill="#BC311E" d="M107-67.6c-0.5,0-1-0.2-1.3-0.5l-7-7c-0.8-0.8-0.8-1.9,0-2.7c0.8-0.8,1.9-0.8,2.7,0l7,7
			c0.8,0.8,0.8,1.9,0,2.7C108-67.7,107.5-67.6,107-67.6z"/>
	</g>
	<g>
		<path fill="#BC311E" d="M104-71.2c-0.6,0-1.1-0.2-1.6-0.6c-0.8-0.8-0.8-2.2,0-3.2l3.5-3.5c0.8-0.8,2.2-0.8,3.2,0
			c0.8,0.8,0.8,2.2,0,3.2l-3.5,3.5C105.1-71.4,104.5-71.2,104-71.2z"/>
	</g>
</g>
<g>
	<g>
		<g>
			<path d="M-23.7-171.5h-56.5c-1,0-1.8-0.3-2.4-1c-0.6-0.6-1-1.6-1-2.6c0-0.6,0.5-57,0-90.1c-0.2-11.2,2.4-19.5,7.5-24.6
				c5-5,11-6.1,15.4-6.1c3.4,0,5.8,0.6,5.9,0.6c1.6,0.5,2.6,1.8,2.6,3.4c0,17.1,12.2,31.4,29.1,34.1c1.8,0.3,2.9,1.8,2.9,3.5v79.2
				C-20.2-173.1-21.8-171.5-23.7-171.5z M-76.6-178.6h49.4v-73C-45-255.7-57.8-270.7-59-289c-3-0.3-8.2,0-12.2,3.8
				c-3.8,3.8-5.6,10.6-5.6,19.7C-76.2-236.8-76.5-191.4-76.6-178.6z"/>
		</g>
		<g>
			<path d="M45.6-171.5H-11c-1.9,0-3.5-1.6-3.5-3.5v-79.2c0-1.8,1.3-3.2,2.9-3.5c17-2.7,29.3-17,29.3-34.1c0-1.8,1.3-3.2,3-3.5
				c0.5,0,12.2-1.8,20.6,6.7c5.3,5.3,7.8,13.1,7.8,23.4c0,30.2,0,90.1,0,90.1c0,1-0.3,1.8-1,2.4C47.4-171.8,46.4-171.5,45.6-171.5z
				 M-7.5-178.6h49.4c0-13.3,0-60.8,0-86.6c0-8.3-1.9-14.6-5.9-18.4c-3.8-3.8-8.6-4.6-11.8-4.8c-1.4,18.1-14.2,33-31.8,37
				C-7.5-251.4-7.5-178.6-7.5-178.6z"/>
		</g>
		<g>
			<path d="M-17-261.6c-17.6,0-31.8-14.2-31.8-31.8s14.2-31.8,31.8-31.8s31.8,14.2,31.8,31.8S0.6-261.6-17-261.6z M-17-318.4
				c-13.8,0-24.8,11.2-24.8,24.8c0,13.8,11.2,24.8,24.8,24.8c13.8,0,24.8-11.2,24.8-24.8C7.8-307.2-3.4-318.4-17-318.4z"/>
		</g>
	</g>
	<g>
		<rect x="-20.5" y="-321.9" width="7" height="8.6"/>
	</g>
	<g>
		<rect x="2.7" y="-297" width="8.6" height="7"/>
	</g>
	<g>
		<rect x="-45.3" y="-297" width="8.6" height="7"/>
	</g>
	<g>
		<path d="M-16.6-290.4l3.7-4c0,0-15.7-13.8-17.1-12.2C-31.4-305.1-16.6-290.4-16.6-290.4"/>
	</g>
	<g>
		<circle cx="-16.3" cy="-293.6" r="4.8"/>
	</g>
</g>
<g>
	<g>
		<g>
			<path d="M-383.7-235.7c2.1-1.1,4.2-2.1,6.4-2.7c0-0.3-0.2-0.6-0.3-1C-379.8-238.2-381.8-237.1-383.7-235.7L-383.7-235.7z"/>
		</g>
		<g>
			<path d="M-403.7-182.2c-4.6,5.1-10.6,11.4-12.8,13.9c0,0-0.3,0.2-0.5,0.3c0-0.2-0.3-0.3-0.5-0.5c-12.5-14.2-33.3-38.4-33.3-60.5
				c0-18.7,15.2-33.9,33.9-33.9c13.4,0,25,7.8,30.4,19c1.9-1.3,3.8-2.4,5.9-3.4c-6.7-13.4-20.5-22.6-36.3-22.6
				c-22.4,0-40.6,17.9-40.6,40.6c0,23.7,20.3,48,35.2,65c0,0,2.4,2.7,5.4,2.7h0.3c2.9,0,5.3-2.7,5.4-2.7c1.8-2.1,6.6-7.2,10.6-11.5
				C-401.9-177.6-402.9-179.8-403.7-182.2z"/>
		</g>
	</g>
	<g>
		<path d="M-361.6-245.4c-22.4,0-40.6,17.9-40.6,40.6c0,23.7,20.3,48,35.2,65c0,0,2.4,2.7,5.4,2.7h0.3c2.9,0,5.3-2.7,5.4-2.7
			c14.9-17,35.2-41.3,35.2-65C-321-227.4-339-245.4-361.6-245.4 M-361.1-144.3c0,0-0.3,0.2-0.5,0.3c0-0.2-0.3-0.3-0.5-0.5
			c-12.5-14.2-33.3-38.4-33.3-60.5c0-18.7,15.2-33.9,33.9-33.9c18.7,0,33.9,15.2,33.9,33.9C-327.7-182.7-348.6-158.7-361.1-144.3"/>
	</g>
</g>
<g>
	<g>
		<path fill="#FFFFFF" d="M115.5,262.6c-6.9,0-12.5-5.6-12.5-12.5c0-6.9,5.6-12.5,12.5-12.5s12.5,5.6,12.5,12.5
			C128,257,122.4,262.6,115.5,262.6z M115.5,241.6c-4.6,0-8.5,3.8-8.5,8.5c0,4.6,3.8,8.5,8.5,8.5s8.5-3.8,8.5-8.5
			S120.2,241.6,115.5,241.6z"/>
	</g>
	<g>
		<path fill="#FFFFFF" d="M145.4,250.1c0,8.2-3.4,15.7-8.8,21.1l3,3c6.2-6.2,9.9-14.7,9.9-24.2c0-9.4-3.8-17.9-9.9-24.2l-3,3
			C142.1,234.4,145.4,241.9,145.4,250.1"/>
	</g>
	<g>
		<path fill="#FFFFFF" d="M85.8,250.1c0-8.2,3.4-15.7,8.8-21.1l-3-3c-6.2,6.2-10.1,14.7-10.1,24.2c0,9.4,3.8,17.9,10.1,24.2l3-3
			C89.1,265.8,85.8,258.2,85.8,250.1"/>
	</g>
	<g>
		<path fill="#FFFFFF" d="M134.7,250.1c0,5.3-2.1,10.1-5.6,13.6l3,3c4.3-4.3,6.9-10.1,6.9-16.6c0-6.4-2.6-12.3-6.9-16.6l-3,3
			C132.6,240,134.7,244.8,134.7,250.1"/>
	</g>
	<g>
		<path fill="#FFFFFF" d="M96.3,250.1c0-5.3,2.1-10.1,5.6-13.6l-3-3c-4.3,4.3-6.9,10.1-6.9,16.6c0,6.4,2.6,12.3,6.9,16.6l3-3
			C98.6,260.2,96.3,255.4,96.3,250.1"/>
	</g>
	<g>
		<path fill="#FFFFFF" d="M115.5,298.1c-1.1,0-1.9-1-1.9-1.9v-33.8c0-1.1,1-1.9,1.9-1.9c1.1,0,1.9,1,1.9,1.9v33.8
			C117.4,297.3,116.6,298.1,115.5,298.1z"/>
	</g>
</g>
<g>
	<g>
		<path d="M-166.1-183.4h-83.2c-1.9,0-3.5-1.6-3.5-3.5v-83.2c0-1.9,1.6-3.5,3.5-3.5h83.2c1.9,0,3.5,1.6,3.5,3.5v83.2
			C-162.6-185-164.2-183.4-166.1-183.4z M-245.8-190.4h76.3v-76.3h-76.3V-190.4z"/>
	</g>
	<g>
		<path d="M-187.7-205h-40.2c-1.9,0-3.5-1.6-3.5-3.5v-40.2c0-1.9,1.6-3.5,3.5-3.5h40.2c1.9,0,3.5,1.6,3.5,3.5v40.2
			C-184.2-206.4-185.8-205-187.7-205z M-224.3-211.8h33.3v-33.3h-33.3V-211.8z"/>
	</g>
	<g>
		<path d="M-235.8-282.7c-1.9,0-3.5-1.6-3.5-3.5v-16.2c0-1.9,1.6-3.5,3.5-3.5s3.5,1.6,3.5,3.5v16.2
			C-232.3-284.3-233.9-282.7-235.8-282.7z"/>
	</g>
	<g>
		<path d="M-207.7-282.7c-1.9,0-3.5-1.6-3.5-3.5v-16.2c0-1.9,1.6-3.5,3.5-3.5s3.5,1.6,3.5,3.5v16.2
			C-204.2-284.3-205.8-282.7-207.7-282.7z"/>
	</g>
	<g>
		<path d="M-179.5-282.7c-1.9,0-3.5-1.6-3.5-3.5v-16.2c0-1.9,1.6-3.5,3.5-3.5c1.9,0,3.5,1.6,3.5,3.5v16.2
			C-176-284.3-177.6-282.7-179.5-282.7z"/>
	</g>
	<g>
		<path d="M-235.8-149.3c-1.9,0-3.5-1.6-3.5-3.5V-169c0-1.9,1.6-3.5,3.5-3.5s3.5,1.6,3.5,3.5v16.2
			C-232.3-150.9-233.9-149.3-235.8-149.3z"/>
	</g>
	<g>
		<path d="M-207.7-149.3c-1.9,0-3.5-1.6-3.5-3.5V-169c0-1.9,1.6-3.5,3.5-3.5s3.5,1.6,3.5,3.5v16.2
			C-204.2-150.9-205.8-149.3-207.7-149.3z"/>
	</g>
	<g>
		<path d="M-179.5-149.3c-1.9,0-3.5-1.6-3.5-3.5V-169c0-1.9,1.6-3.5,3.5-3.5c1.9,0,3.5,1.6,3.5,3.5v16.2
			C-176-150.9-177.6-149.3-179.5-149.3z"/>
	</g>
	<g>
		<path d="M-132.5-253.1h-16c-1.9,0-3.5-1.6-3.5-3.5c0-1.9,1.6-3.5,3.5-3.5h16c1.9,0,3.5,1.6,3.5,3.5
			C-129-254.7-130.6-253.1-132.5-253.1z"/>
	</g>
	<g>
		<path d="M-132.5-225h-16c-1.9,0-3.5-1.6-3.5-3.5s1.6-3.5,3.5-3.5h16c1.9,0,3.5,1.6,3.5,3.5S-130.6-225-132.5-225z"/>
	</g>
	<g>
		<path d="M-132.5-196.8h-16c-1.9,0-3.5-1.6-3.5-3.5c0-1.9,1.6-3.5,3.5-3.5h16c1.9,0,3.5,1.6,3.5,3.5
			C-129-198.4-130.6-196.8-132.5-196.8z"/>
	</g>
	<g>
		<path d="M-266.2-253.1h-16c-1.9,0-3.5-1.6-3.5-3.5c0-1.9,1.6-3.5,3.5-3.5h16c1.9,0,3.5,1.6,3.5,3.5
			C-262.7-254.7-264.3-253.1-266.2-253.1z"/>
	</g>
	<g>
		<path d="M-266.2-225h-16c-1.9,0-3.5-1.6-3.5-3.5s1.6-3.5,3.5-3.5h16c1.9,0,3.5,1.6,3.5,3.5S-264.3-225-266.2-225z"/>
	</g>
	<g>
		<path d="M-266.2-196.8h-16c-1.9,0-3.5-1.6-3.5-3.5c0-1.9,1.6-3.5,3.5-3.5h16c1.9,0,3.5,1.6,3.5,3.5
			C-262.7-198.4-264.3-196.8-266.2-196.8z"/>
	</g>
</g>
<g>
	<g>
		<g>
			<path d="M675.5-131.4l-19.2-11c-1.6-1-2.2-3-1.3-4.8c1-1.6,3-2.2,4.8-1.3l13.3,7.7c6.1-10.6,9.3-22.6,9.3-34.7
				c0-38.4-31.2-69.8-69.8-69.8c-24,0-46.1,12.2-58.9,32.3c-7,11.2-10.9,24-10.9,37.3c0,12.3,3.2,24.2,9.3,34.7l13.9-6.9
				c1.8-0.8,3.8-0.2,4.6,1.6s0.2,3.8-1.6,4.6l-19.7,9.6l-1.6-2.6c-7.8-12.3-12-26.6-12-41.1s4.2-28.8,11.8-41.1
				c14.2-22.2,38.4-35.7,64.8-35.7c42.2,0,76.6,34.4,76.6,76.6c0,14.7-4.2,29.1-12.2,41.4L675.5-131.4z"/>
		</g>
		<g>
			<path d="M659-201.8c-1.3,0-2.4-0.6-3-1.8c-1-1.8-0.3-3.8,1.4-4.8l14.6-8c1.8-1,3.8-0.3,4.8,1.4c1,1.8,0.3,3.8-1.4,4.8l-14.6,8
				C660.2-201.9,659.5-201.8,659-201.8z"/>
		</g>
		<g>
			<path d="M612.8-225.9c-1.9,0-3.5-1.6-3.5-3.5v-19.4c0-1.9,1.6-3.5,3.5-3.5c1.9,0,3.5,1.6,3.5,3.5v19.4
				C616.3-227.5,614.7-225.9,612.8-225.9z"/>
		</g>
		<g>
			<path d="M566.4-201.8c-0.6,0-1.3-0.2-1.8-0.5l-15.4-9.6c-1.6-1-2.1-3.2-1.1-4.8c1-1.6,3.2-2.1,4.8-1.1l15.4,9.6
				c1.6,1,2.1,3.2,1.1,4.8C568.6-202.2,567.5-201.8,566.4-201.8z"/>
		</g>
	</g>
	<g>
		<path d="M637.4-129.3h-46.7c-1.9,0-3.5-1.6-3.5-3.5s1.6-3.5,3.5-3.5h46.7c1.9,0,3.5,1.6,3.5,3.5S639.4-129.3,637.4-129.3z"/>
	</g>
	<path d="M612.8-192.3c-7.5,0-13.6,6.1-13.6,13.6c0,7.5,6.1,13.6,13.6,13.6s13.6-6.1,13.6-13.6S620.3-192.3,612.8-192.3z
		 M612.8-171.5c-3.8,0-7-3.2-7-7c0-3.8,3.2-7,7-7c3.8,0,7,3.2,7,7C619.8-174.7,616.6-171.5,612.8-171.5z"/>
	<g>
		<path d="M609.9-185.1c-2.1,0-3.2,0-3.2,0l0.2,2.6C607.5-183.7,608.6-184.5,609.9-185.1z"/>
		<path d="M615.7-185.1c2.6,1.1,4.3,3.5,4.3,6.6c0,3.8-3.2,7-7,7c-2.2,0-4.2-1.1-5.4-2.7l0.3,4.6c0,0,58.9-5.1,58.6-11
			C665.9-184.8,632.2-185.3,615.7-185.1z"/>
	</g>
</g>
<g>
	<g>
		<path d="M-129.9,35.5L-129.9,35.5c-7,0-13.4-4.5-15.8-11.2c-3.2-8.8,1.4-18.4,10.1-21.6c1.9-0.6,3.8-1,5.8-1
			c7,0,13.4,4.5,15.8,11.2c3.2,8.8-1.4,18.4-10.1,21.6C-126.1,35.2-128,35.5-129.9,35.5z M-129.9,8.6c-1.1,0-2.2,0.2-3.4,0.6
			c-5.1,1.9-7.8,7.5-5.9,12.6c1.4,3.8,5.1,6.6,9.3,6.6l0,0c1.1,0,2.2-0.2,3.4-0.6c5.1-1.9,7.8-7.5,5.9-12.6
			C-122.1,11.4-125.8,8.6-129.9,8.6z"/>
	</g>
	<g>
		<path d="M-169.6,157.6c-1.1,0-2.2-0.3-3.4-1c-8.5-4.8-4.3-12.3-2.1-16.3c0.6-1.1,1.3-2.2,1.6-3.2c3-7.7,7.5-21.1,8-22.4l5.4-20.5
			l6.7,1.8l-5.4,20.8c-0.2,0.6-4.8,14.7-8.2,23c-0.5,1.3-1.3,2.7-1.9,3.8c-3,5.4-2.4,5.8-0.6,6.9c1.6-1,4.8-6.6,6.2-9.4
			c6.7-12,7.5-13.4,7.5-13.4l0.6-1.1c2.2-4.3,3-5.9,4.5-10.1l2.4-6.4l6.6,2.4l-2.4,6.4c-1.8,4.8-2.6,6.6-5.4,12.2l-0.6,1.1h-0.2
			c-0.8,1.4-2.7,5-6.9,12.3c-4,7.2-6.7,11.7-10.7,12.8C-168.5,157.4-169,157.6-169.6,157.6z"/>
	</g>
	<g>
		<path d="M-125,157.1L-125,157.1c-3,0-7.2-2.1-14.1-17.4l-0.2-0.3l-5-14.9l-7.4-22.1c-10.2-4.5-10.4-12.5-9-20.5l4.3-21.1l-2.9,1.4
			l-11.4,13.1c-0.3,0.3-0.6,0.8-1,1.1c-2.9,3.8-5.4,6.9-8.6,6.9c-1,0-1.9-0.3-2.7-1c-6.6-4.8,1.1-18.7,1.4-19.4l0.2-0.2l12.5-20.2
			c1.6-2.2,5.6-4.6,8.3-5.1l16.2-4.6c1.6-0.2,3.2,0,4.8,0.5l13.6,3.4c4.8,1.3,5.8,8.6,5,11.7L-129,87l-1.3,5.1c0,5.9,0,6.1,0.6,12
			l8.6,25.1c2.4,8.5,4.8,23.5-1.6,26.9C-123.2,157-124.2,157.1-125,157.1z M-132.6,137.1c3.4,7.4,5.6,10.7,6.9,12.2
			c0.5-2.7,0.5-8.8-1.9-17.4l-8.8-25.6v-0.5c-0.6-6.6-0.6-6.7-0.6-13.4v-0.5l1.4-5.9l8.3-38.6c0.2-0.8,0-2.6-0.5-3.4l-13.6-3.4
			c-0.5-0.2-1-0.3-1.3-0.2l-16,4.5c-1,0.2-3.2,1.6-3.8,2.2l-12.3,19.7c-1.3,2.2-2.2,4.8-2.7,6.9c0.3-0.5,0.6-1,1-1.3
			c0.5-0.5,0.8-1,1.1-1.4l0.2-0.2l12.3-14.1l17.1-9l-7.7,35.5c-1.3,7.5-0.6,10.7,6.1,13.3l1.6,0.6l8.6,25.3L-132.6,137.1z"/>
	</g>
	<g>
		<path d="M-89.3,91.7c-2.7,0-6.2-1.1-10.9-2.6c-0.6-0.2-1.4-0.5-1.9-0.6c-5.6-1.8-15.7-6.4-16.2-6.6l-0.8-0.3l-0.5-0.8
			c-1.1-1.4-1.3-1.8-1.4-1.9c-0.2-0.2-0.2-0.2-1.6-2.2l-0.2-0.3l-0.2-0.5l-6.1-14.6l6.4-2.7l5.9,14.1c0.8,1.1,1.1,1.4,1.1,1.6
			c0.2,0.2,0.3,0.5,1.1,1.4c2.6,1.1,10.1,4.5,14.6,5.9c0.6,0.2,1.3,0.5,2.1,0.6c1.3,0.5,3.5,1.1,5.6,1.8c-2.9-2.7-8.6-5.8-11.7-7.2
			c-2.2-1.1-4-2.1-5.4-3l-0.6-0.5l-7-12.2l-10.9-17.8l5.9-3.7l11,17.9l6.2,10.9c1.1,0.6,2.6,1.4,4.2,2.2c7.7,4,17.1,9,17.1,16.2
			c0,1.6-0.6,2.9-1.9,3.7C-86.6,91.4-87.8,91.7-89.3,91.7z"/>
	</g>
</g>
<g>
	<g>
		<path d="M1650.1,152.6c-38.9,0-70.6-31.7-70.6-70.6s31.7-70.6,70.6-70.6c38.9,0,70.6,31.7,70.6,70.6
			C1720.8,115.4,1690.6,152.6,1650.1,152.6z M1650.1,18.2c-35,0-63.7,28.5-63.7,63.7s28.5,63.7,63.7,63.7
			c35.8,0,63.7-34.2,63.7-63.7C1713.8,46.9,1685.1,18.2,1650.1,18.2z"/>
	</g>
	<g>
		<path d="M1678.7,105.3c-0.6,0-1.4-0.2-1.9-0.6l-28.6-19.8c-1-0.6-1.4-1.8-1.4-2.9V42.4c0-1.9,1.6-3.5,3.5-3.5s3.5,1.6,3.5,3.5
			v37.8l27,18.7c1.6,1.1,1.9,3.2,1,4.8C1680.8,104.8,1679.8,105.3,1678.7,105.3z"/>
	</g>
	<g>
		<path d="M1717.3,85.4h-10.6c-1.9,0-3.5-1.6-3.5-3.5c0-1.9,1.6-3.5,3.5-3.5h10.6c1.9,0,3.5,1.6,3.5,3.5
			C1720.8,83.8,1719.2,85.4,1717.3,85.4z"/>
	</g>
	<g>
		<path d="M1593.8,85.4h-10.9c-1.9,0-3.5-1.6-3.5-3.5c0-1.9,1.6-3.5,3.5-3.5h10.9c1.9,0,3.5,1.6,3.5,3.5
			C1597.3,83.8,1595.8,85.4,1593.8,85.4z"/>
	</g>
	<g>
		<path d="M1650.1,152.6c-1.9,0-3.5-1.6-3.5-3.5v-11c0-1.9,1.6-3.5,3.5-3.5s3.5,1.6,3.5,3.5v11C1653.6,151,1652,152.6,1650.1,152.6z
			"/>
	</g>
	<g>
		<path d="M1650.1,29.3c-1.9,0-3.5-1.6-3.5-3.5V14.9c0-1.9,1.6-3.5,3.5-3.5s3.5,1.6,3.5,3.5v11C1653.6,27.7,1652,29.3,1650.1,29.3z"
			/>
	</g>
</g>
<g id="Expanded_1_">
	<g>
		<g>
			<g>
				<path d="M1837.1,99.8c-1.1,0-2.1-0.5-2.7-1.3L1810.6,71c-1.3-1.6-1.1-3.8,0.3-5.1c1.4-1.3,3.8-1.1,5.1,0.3l20.6,23.8l17.1-26.6
					c1.1-1.8,3.4-2.2,5-1.1c1.8,1.1,2.2,3.4,1.1,5l-19.7,30.6c-0.6,1-1.6,1.6-2.9,1.6C1837.3,99.8,1837.3,99.8,1837.1,99.8z"/>
			</g>
		</g>
		<g>
			<g>
				<path d="M1979,108.8c-1.1,0-2.4-0.5-3-1.6l-17.6-26.1l-20.2,24.2c-1.3,1.6-3.5,1.8-5.1,0.5c-1.6-1.3-1.8-3.5-0.5-5.1l23.4-27.8
					c0.8-1,1.8-1.4,3-1.3c1.1,0,2.2,0.6,2.9,1.6l20.3,30.2c1.1,1.6,0.6,4-1,5.1C1980.3,108.6,1979.7,108.8,1979,108.8z"/>
			</g>
		</g>
		<g>
			<g>
				<path d="M1897.1,147.4c-17,0-33.4-6.6-45.9-18.9c-1.4-1.4-1.4-3.7,0-5.1c1.4-1.4,3.7-1.4,5.1,0c14.4,14.2,34.7,19.8,54.2,15.2
					c28.6-6.7,47.8-33.9,44.5-63.2c-0.2-1.9,1.3-3.8,3.2-4c2.1-0.3,3.8,1.3,4,3.2c3.8,33-17.8,63.4-49.9,71
					C1907.4,146.9,1902.2,147.4,1897.1,147.4z"/>
			</g>
		</g>
		<g>
			<g>
				<path d="M1837.1,99.8c-1.6,0-3.2-1.1-3.5-2.9c-4-17-1.1-34.6,8-49.4c9.1-14.9,23.7-25.3,40.6-29.3c23.5-5.6,48,2.2,64.2,20.3
					c1.3,1.4,1.1,3.8-0.3,5.1c-1.4,1.3-3.8,1.1-5.1-0.3c-14.2-16.2-36.2-23-57-18.1c-15,3.5-28,12.8-36.2,26.1
					c-8.2,13.3-10.7,28.8-7,44c0.5,1.9-0.8,4-2.7,4.3C1837.8,99.8,1837.4,99.8,1837.1,99.8z"/>
			</g>
		</g>
	</g>
</g>
<g>
	<g>
		<path d="M1420.5,135.4c-27.4,0-57-5.9-57-18.9V115l10.9-10.1V67.5c0-28.8,19.2-49.8,45.6-49.8s45.6,21,45.6,49.8v37.3l12,10.1v1.6
			C1477.4,129.4,1448,135.4,1420.5,135.4z M1371,117.8c2.7,4.2,20,10.7,49.6,10.7c29.3,0,46.6-6.4,49.4-10.6l-11.5-9.8V67.5
			c0-24.8-16.2-42.7-38.6-42.7s-38.6,17.9-38.6,42.7V108L1371,117.8z"/>
	</g>
	<g>
		<path d="M1433.6,138.6c0,5.8-6.1,10.6-13.8,10.6c-7.5,0-13.8-4.6-13.8-10.6H1433.6z"/>
		<path d="M1420,149.8c-8,0-14.4-5-14.4-11.2v-0.6h28.8v0.6C1434.4,144.8,1427.8,149.8,1420,149.8z M1407,139.4
			c0.5,5.1,6.1,9.1,13,9.1s12.5-4,13-9.1H1407z"/>
	</g>
	<g>
		<path d="M1425.4,21.3v-5.4c0-2.7-2.4-5-5.6-5c-3,0-5.6,2.2-5.6,5v5.6"/>
		<path d="M1426.2,21.3h-1.4v-5.4c0-2.4-2.2-4.3-4.8-4.3c-2.7,0-4.8,1.9-4.8,4.3v5.6h-1.4v-5.6c0-3,2.7-5.6,6.2-5.6
			c3.4,0,6.2,2.6,6.2,5.6V21.3L1426.2,21.3z"/>
	</g>
</g>
<g>
	<g>
		<path fill="#FFFFFF" stroke="#FFFFFF" stroke-width="0.5" stroke-miterlimit="10" d="M66.3,90.8H51.6c-2,0-3.7-1.7-3.7-3.9V71.4
			c0-2.1,1.6-3.9,3.7-3.9h14.7c2,0,3.7,1.7,3.7,3.9v15.6C70,89.1,68.3,90.8,66.3,90.8z M51.6,70.1c-0.7,0-1.2,0.6-1.2,1.3v15.6
			c0,0.7,0.5,1.3,1.2,1.3h14.7c0.7,0,1.2-0.6,1.2-1.3V71.4c0-0.7-0.5-1.3-1.2-1.3H51.6z"/>
	</g>
	<g>
		<path fill="#FFFFFF" stroke="#FFFFFF" stroke-width="0.5" stroke-miterlimit="10" d="M105.4,49.3H90.8c-2,0-3.7-1.7-3.7-3.9V29.8
			c0-2.1,1.6-3.9,3.7-3.9h14.7c2,0,3.7,1.7,3.7,3.9v15.6C109.1,47.6,107.5,49.3,105.4,49.3z M90.8,28.5c-0.7,0-1.2,0.6-1.2,1.3v15.6
			c0,0.7,0.5,1.3,1.2,1.3h14.7c0.7,0,1.2-0.6,1.2-1.3V29.8c0-0.7-0.5-1.3-1.2-1.3H90.8z"/>
	</g>
	<g>
		<path fill="#FFFFFF" stroke="#FFFFFF" stroke-width="0.5" stroke-miterlimit="10" d="M73.6,80.4v-2.6c0,0,1,0,2-0.5
			c1.1-0.6,1.7-1.7,1.7-3.3V42.8c0-2.6,1.1-4.6,3.1-5.7c1.4-0.8,2.8-0.8,3-0.8l0,2.6c0,0-1,0-2,0.5c-1.1,0.6-1.7,1.7-1.7,3.3V74
			c0,2.6-1.1,4.6-3.1,5.7C75.2,80.4,73.8,80.4,73.6,80.4z"/>
	</g>
</g>
</svg>
