<!-- Generator: Adobe Illustrator 24.0.3, SVG Export Plug-In  -->
<svg version="1.1" xmlns="http://www.w3.org/2000/svg" xmlns:xlink="http://www.w3.org/1999/xlink" x="0px" y="0px"
	 width="78.841px" height="374px" viewBox="0 0 78.841 374" style="enable-background:new 0 0 78.841 374;" xml:space="preserve">
<style type="text/css">
	.st0{fill:none;}
	.st1{fill:#ED1943;}
	.st2{font-family:'AcuminProWide-UltraBlackItalic';}
	.st3{font-size:40px;}
	.st4{letter-spacing:-5;}
</style>
<defs>
</defs>
<g>
	<rect x="4.841" y="0" class="st0" width="74" height="374"/>
	<path class="st1" d="M23.322,340.285c7.079,1.84,11.478,7.039,11.478,17.277c0,10.599-5.639,14.678-12.438,14.678
		c-7.079,0-17.157-3.999-17.157-18.396c0-10.318,4.799-14.638,11.358-14.678v11.438c-2.72-0.199-4.559,0.561-4.559,3.12
		c0,4.759,7.679,6.079,10.878,6.079c3.16,0,4.759-1.16,4.759-3.4c0-2.079-1.2-3.799-4.319-4.959V340.285z"/>
	<path class="st1" d="M29.841,327.521l4.239,2.08v12.038L5.925,326.362v-15.518l28.155-4.159v11.638l-4.239,0.36V327.521z
		 M22.482,319.363c-2.24,0.2-6.519,0.44-9.158,0.6v0.28c2.56,0.92,6.519,2.6,9.158,3.76V319.363z"/>
	<path class="st1" d="M24.042,290.683l10.038,2.08v11.518l-28.155-5.919v-17.157c0-6.999,3.239-10.398,7.559-10.398
		c4,0,6.559,2.52,7.559,6.399c1.04-1.96,3.079-3.76,8.079-2.68c1.68,0.36,3.559,0.68,4.959,0.6v11.158
		c-1.08,0.32-3.12,0.16-5.999-0.48c-2.799-0.64-4.039-0.479-4.039,2.28V290.683z M17.763,289.363v-3.239c0-2.16-1.2-3.24-2.759-3.24
		c-1.4,0-2.16,0.8-2.16,2.4v3.04L17.763,289.363z"/>
	<path class="st1" d="M5.925,265.162v-18.157c0-6.679,2.56-9.918,6.839-9.918c2.879,0,5.239,1.879,6.359,5.639
		c0.88-2.36,2.919-4.319,5.719-4.319c6.719,0,9.238,6.399,9.238,13.518v19.197L5.925,265.162z M16.683,252.124
		c0-1.96-0.76-3.24-2.36-3.24c-1.56,0-1.959,1.16-1.959,2.6v3.52l4.319,0.92V252.124z M27.681,258.243v-3.799
		c0-2.399-0.76-3.759-2.68-3.759c-1.28,0-2.04,0.88-2.04,2.64v3.919L27.681,258.243z"/>
	<path class="st1" d="M17.923,201.167c9.598,0,16.877,6.319,16.877,18.877c0,11.558-6.119,15.357-12.518,15.357
		c-8.319,0-17.077-5.239-17.077-18.517C5.205,205.486,11.604,201.167,17.923,201.167z M22.842,222.963
		c2.44,0,4.799-0.68,4.799-3.399c0-4.679-7.319-6.039-11.158-6.039c-2.64,0-4.439,0.959-4.439,3.519
		C12.044,221.404,19.283,222.963,22.842,222.963z"/>
	<path class="st1" d="M34.08,200.481l-28.155-5.959v-13.438c5.519-1.48,11.278-2.8,15.357-3.68v-0.24
		c-2.16-0.08-7.159-1.08-11.838-2.04l-3.52-0.76v-10.358l28.155,5.959v12.798c-4.359,1.04-12.918,2.919-17.357,3.879v0.2
		c3.279,0.28,8.438,1.36,13.317,2.399l4.04,0.84V200.481z"/>
	<path class="st1" d="M5.925,149.444v-11.799l20.756,4.399v-13.798l7.399,2.76v24.396L5.925,149.444z"/>
	<path class="st1" d="M34.08,126.004l-9.758-2.079c-0.56-0.12-0.8-0.04-1.36,0.199l-17.037,6.759v-12.317
		c3.359-0.72,7.639-1.6,10.638-2.12c-2.759-1.6-6.999-4.399-10.638-6.759V97.369l17.957,14.397c0.28,0.24,0.68,0.439,1.36,0.6
		l8.838,1.84V126.004z"/>
	<path class="st1" d="M34.08,101.563L5.925,95.604V82.166c5.519-1.479,11.278-2.799,15.357-3.679v-0.24
		c-2.16-0.08-7.159-1.08-11.838-2.04l-3.52-0.76V65.089l28.155,5.959v12.798c-4.359,1.04-12.918,2.92-17.357,3.88v0.2
		c3.279,0.279,8.438,1.359,13.317,2.399l4.04,0.84V101.563z"/>
	<path class="st1" d="M34.08,48.446c-2.359,0.8-5.839,2.08-7.719,2.68v0.08c1.88,1.24,5.359,3.879,7.719,5.439v12.397L19.802,56.565
		L5.925,63.244V50.566c1.64-0.521,5.519-2.04,7.039-2.6v-0.12c-1.92-1.359-5-3.72-7.039-5.199V30.409l13.558,12.519l14.598-7.119
		V48.446z"/>
</g>
</svg>