<?xml version="1.0" encoding="utf-8"?>
<!-- Generator: Adobe Illustrator 18.0.0, SVG Export Plug-In . SVG Version: 6.00 Build 0)  -->
<!DOCTYPE svg PUBLIC "-//W3C//DTD SVG 1.1//EN" "http://www.w3.org/Graphics/SVG/1.1/DTD/svg11.dtd">
<svg version="1.1" id="Ebene_1" xmlns="http://www.w3.org/2000/svg" xmlns:xlink="http://www.w3.org/1999/xlink" x="0px" y="0px"
	 viewBox="0 0 100 100" enable-background="new 0 0 100 100" xml:space="preserve">
<g>
	<g>
		<path d="M-319.1,26.8h-45.4c-1.2,0-2.2-1-2.2-2.2c0-1.2,1-2.2,2.2-2.2h45.4c1.2,0,2.2,1,2.2,2.2
			C-316.9,25.8-317.9,26.8-319.1,26.8z"/>
	</g>
	<g>
		<path d="M-341.8,26.8c-1,0-1.8-0.6-2.1-1.6l-2.7-10.3l-25.2-16.4c-1-0.7-1.3-2-0.6-3c0.7-1,2-1.3,3-0.6l26.6,17.3l3.2,11.9
			c0.3,1.2-0.4,2.4-1.5,2.7C-341.4,26.8-341.6,26.8-341.8,26.8z"/>
	</g>
	<g>
		<path d="M-330.3,93.2h-23.2c-1,0-1.9-0.7-2.1-1.7l-12.5-59.7c-0.1-0.6,0-1.3,0.4-1.8c0.4-0.5,1-0.8,1.7-0.8h48.3
			c0.7,0,1.3,0.3,1.7,0.8c0.4,0.5,0.6,1.2,0.4,1.8l-12.5,59.7C-328.4,92.5-329.3,93.2-330.3,93.2z M-351.8,88.9h19.7l11.6-55.3
			h-42.9L-351.8,88.9z"/>
	</g>
</g>
<g>
	<g>
		<path d="M-196.1,25.9c-5.8,0-10.6-4.7-10.6-10.6c0-5.8,4.7-10.6,10.6-10.6c5.8,0,10.6,4.7,10.6,10.6
			C-185.5,21.2-190.3,25.9-196.1,25.9z M-196.1,9.1c-3.4,0-6.2,2.8-6.2,6.2c0,3.4,2.8,6.2,6.2,6.2c3.4,0,6.2-2.8,6.2-6.2
			C-189.9,11.9-192.7,9.1-196.1,9.1z"/>
	</g>
	<g>
		<path d="M-233,77.7l-0.2,0c-0.6,0-14.5-0.9-18.6-1.2c-2.4-0.2-8.8-0.7-8.8-6.1c0-1.3,0.6-5.5,7.6-5.9c3.7-0.2,13-0.9,16.1-1.1
			l7-10.1l3.6,2.5l-8.2,11.8l-1,0.1c-0.1,0-12.7,0.9-17.2,1.1c-0.6,0-3.5,0.3-3.5,1.6c0,0.3,0,1.4,4.7,1.7c4,0.3,17.4,1.1,18.5,1.2
			c1.1,0,2.1-0.6,2.8-1.6l7.4-10.6l3.6,2.5l-7.4,10.6C-228.1,76.4-230.5,77.7-233,77.7z"/>
	</g>
	<g>
		<path d="M-214.4,98.5L-214.4,98.5c-0.6,0-1.3-0.1-1.9-0.4c-1.9-0.8-4.6-3.6-0.8-12.7l6-14.8l-14.7-9.8c-6-5.1-4.3-10-1.7-14.6
			l0.1-0.1l9.5-14.1l-4.4-1l-11.9,6.3c-1,0.6-2.9,1.3-4.6,1.3c-2.1,0-3.1-1-3.5-1.6c-1.7-2.5-0.7-5.5,3-8.7l0.1-0.1l12.2-9.4
			c1.4-1,3.2-1.3,4.9-1l14.7,3.2c1,0.2,1.9,0.7,2.7,1.3l7.2,4.9c2.6,1.8,1.5,6.3,0.4,7.9l-11.9,19.1l11.1,7.6c2.9,2,4,5.8,2.5,8.9
			l-0.1,0.1l-10.2,19.4C-208.7,95.9-211.4,98.5-214.4,98.5z M-214.5,94.1c0.1,0,0.1,0,0.1,0c0.2,0,1.8-0.2,4.9-5.8l10.1-19.3
			c0.5-1.3,0.1-2.7-1-3.5l-14.6-10l14.2-22.7c0.3-0.4,0.5-1.6,0.5-2.1l-7.2-4.9c-0.3-0.2-0.6-0.4-0.9-0.5l-14.7-3.2
			c-0.5-0.1-1.1,0-1.5,0.3l-12,9.2c-1.5,1.3-2.1,2.2-2.2,2.6c0.7,0,1.7-0.3,2.3-0.7l0.1-0.1l13.4-7.1l12.3,2.7l-13,19.3
			c-2.4,4.1-2.6,6.1,0.7,9l17.4,11.5l-7.4,18.2C-215.2,92.1-214.7,93.8-214.5,94.1z"/>
	</g>
	<g>
		<path d="M-195.9,53.4l-0.2,0c-2.4-0.3-4.4-2.3-5.2-4.1l-3.3-7.8l4-1.7l3.2,7.8c0.3,0.7,1,1.4,1.6,1.5c1.5,0,10.3-0.2,12.8-0.4
			c3-0.2,4-0.6,4.3-0.8c0-0.4-0.4-0.7-3.3-0.9l-11.7-1l-6.7-15.1l4-1.8l5.6,12.8l9.1,0.8c2.6,0.2,7.5,0.5,7.3,5.6
			c-0.2,4.4-6.4,4.7-8.4,4.8c-2.8,0.2-12.8,0.4-13.2,0.4L-195.9,53.4z"/>
	</g>
</g>
<g>
	<path d="M233-61.2c-1.1,0-2-0.7-2.1-1.8l-8.9-48l-4.2,14.1c-0.3,0.9-1.1,1.6-2.1,1.6h-26v-4.4H214l6.4-21.2c0.3-1,1.2-1.6,2.2-1.6
		c1,0.1,1.8,0.8,2,1.8l8.1,43.7l10.9-76.5c0.2-1.1,1.1-1.9,2.1-1.9c1.1,0,2,0.8,2.2,1.8l10.7,64.1l6.2-9.3c0.4-0.6,1.1-1,1.8-1h21.3
		v4.4h-20.1l-8.6,12.9c-0.5,0.7-1.4,1.1-2.3,0.9c-0.9-0.2-1.5-0.9-1.7-1.8l-9.3-55.6L235.1-63C235-62,234.1-61.2,233-61.2
		C233-61.2,233-61.2,233-61.2z"/>
</g>
<g>
	<g>
		<g>
			<path d="M120.5-80.9c-0.1,0-0.3,0-0.4,0c-0.1,0-0.3,0-0.4,0v0c-12-0.3-20.3-6.9-22.3-17.8c-1.5-8.6,1.7-17.2,7.2-20.4
				c0-12.7,0-33.9,0.1-42.9c0.2-12,9.8-15.2,14.9-15.2c0.1,0,13.6,0,14,16.3c0.2,7.5,0.1,17.3,0.1,27.7c0,4.7-0.1,9.3-0.1,13.8
				c6.1,3.2,9.6,12.3,8.1,21.3C139.9-87.5,132-81.2,120.5-80.9L120.5-80.9L120.5-80.9z M119.6-172.8c-1.1,0-10.4,0.4-10.6,10.9
				c-0.1,9.3-0.1,31.7-0.1,44.2v1.5l-1.4,0.5c-4.4,1.6-7.1,9.1-5.8,16.2c0.7,4.2,4,14,18.4,14.2c13.6-0.2,16.7-9.5,17.4-13.5
				c1.3-7.4-1.9-15.4-6.7-17.1l-1.5-0.5v-1.5c0-4.9,0-10.1,0.1-15.3c0.1-10.4,0.1-20.2-0.1-27.6
				C128.9-172.4,120.6-172.8,119.6-172.8z"/>
		</g>
	</g>
	<g>
		<path d="M119.6-90c-6.8,0-12.3-5.5-12.3-12.3c0-6.8,5.5-12.3,12.3-12.3c6.8,0,12.3,5.5,12.3,12.3C131.8-95.5,126.3-90,119.6-90z
			 M119.6-110.1c-4.4,0-7.9,3.5-7.9,7.9c0,4.4,3.5,7.9,7.9,7.9c4.4,0,7.9-3.5,7.9-7.9C127.5-106.6,123.9-110.1,119.6-110.1z"/>
	</g>
	<g>
		<path d="M119.6-110.1c-1.2,0-2.2-1-2.2-2.2v-43.2c0-1.2,1-2.2,2.2-2.2c1.2,0,2.2,1,2.2,2.2v43.2
			C121.7-111.1,120.8-110.1,119.6-110.1z"/>
	</g>
	<g>
		<path d="M96.4-161.8h-7.1c-1.2,0-2.2-1-2.2-2.2s1-2.2,2.2-2.2h7.1c1.2,0,2.2,1,2.2,2.2S97.6-161.8,96.4-161.8z"/>
	</g>
	<g>
		<path d="M96.4-142.2h-7.1c-1.2,0-2.2-1-2.2-2.2c0-1.2,1-2.2,2.2-2.2h7.1c1.2,0,2.2,1,2.2,2.2C98.5-143.2,97.6-142.2,96.4-142.2z"
			/>
	</g>
	<g>
		<path d="M96.4-122.7h-7.1c-1.2,0-2.2-1-2.2-2.2s1-2.2,2.2-2.2h7.1c1.2,0,2.2,1,2.2,2.2S97.6-122.7,96.4-122.7z"/>
	</g>
</g>
<g>
	<path d="M1314.3,82.6c-0.8,0-1.5-0.3-2-0.9l-25.2-29.2c-0.9-1.1-0.8-2.7,0.3-3.7c1.1-0.9,2.7-0.8,3.7,0.3l22.8,26.4l36.3-60.3
		c0.7-1.2,2.4-1.6,3.6-0.9c1.2,0.7,1.6,2.4,0.9,3.6l-38.2,63.4c-0.4,0.7-1.2,1.2-2,1.3C1314.5,82.6,1314.4,82.6,1314.3,82.6z"/>
</g>
<g>
	<g>
		<path d="M732.8,70.8l-1.6-0.4c-2.9-0.8-6.1-1.3-9.3-1.5c-3.2-0.2-6.5-0.2-9.5,0.2l-1.6,0.2l-0.6-1.5c-2-5-2.9-11.2-2.4-17.6
			c1.1-14.4,8.2-25.3,16.7-25.3c0.2,0,0.5,0,0.7,0c8.7,0.6,14.6,12.7,13.5,27.6c-0.5,6.4-2.2,12.5-5,17.1L732.8,70.8z M717.9,64.4
			c1.4,0,2.8,0.1,4.2,0.2c2.9,0.2,5.8,0.6,8.5,1.3c2-3.8,3.2-8.7,3.6-13.8c0.9-12-3.5-22.5-9.5-22.9c-0.1,0-0.3,0-0.4,0
			c-5.2,0-11.4,8.6-12.3,21.3c-0.4,5.1,0.2,10,1.6,14.1C715,64.4,716.5,64.4,717.9,64.4z"/>
	</g>
	<g>
		<path d="M722.8,99.6c-6.3,0-11.6-8.1-11.9-18.5c0-1,0-2,0-2.9l0.1-2l22.4-0.7l0.2,2c0.1,1,0.2,2,0.2,2.9
			c0.3,10.6-4.4,19-10.9,19.3L722.8,99.6z M715.2,80.4c0,0.2,0,0.4,0,0.6c0.3,8.4,4.2,14.3,7.5,14.3l0.1,0c3.4-0.1,7-6.2,6.7-14.8
			c0-0.2,0-0.4,0-0.6L715.2,80.4z"/>
	</g>
	<g>
		<path d="M756.8,41.3l-0.8-1.4c-2.7-4.6-4.5-10.7-5-17.1C749.8,8,755.8-4.1,764.4-4.7c0.2,0,0.5,0,0.7,0c8.5,0,15.6,10.9,16.7,25.3
			c0.5,6.4-0.4,12.7-2.4,17.6l-0.6,1.5l-1.6-0.2c-3-0.3-6.2-0.4-9.5-0.2c-3.3,0.2-6.4,0.8-9.3,1.5L756.8,41.3z M765.1-0.4
			c-0.1,0-0.3,0-0.4,0c-6,0.4-10.4,10.9-9.5,22.9c0.4,5.1,1.6,9.9,3.6,13.8c2.7-0.6,5.5-1,8.5-1.3c2.9-0.2,5.8-0.2,8.6,0
			c1.4-4.1,1.9-9,1.6-14.1C776.6,8.2,770.4-0.4,765.1-0.4z"/>
	</g>
	<g>
		<path d="M766.8,70.2l-0.2,0c-6.5-0.2-11.3-8.7-10.9-19.3c0-1,0.1-2,0.2-2.9l0.2-2l22.4,0.7l0.1,2c0.1,1,0.1,2,0,2.9
			C778.3,62,773.1,70.2,766.8,70.2z M760,50.5c0,0.2,0,0.4,0,0.6c-0.3,8.6,3.3,14.6,6.7,14.8l0.1,0c3.3,0,7.3-5.9,7.5-14.3
			c0-0.2,0-0.4,0-0.6L760,50.5z"/>
	</g>
</g>
<g>
	<g>
		
			<rect x="47" y="14.4" transform="matrix(-0.7071 -0.7071 0.7071 -0.7071 58.5958 92.4024)" fill="#BC311E" width="2.8" height="39.3"/>
	</g>
	<g>
		<path fill="#BC311E" d="M40.2,55.5c-0.4,0-0.7-0.1-1-0.4L27.5,43.5c-0.5-0.5-0.5-1.4,0-2c0.5-0.5,1.4-0.5,2,0l11.6,11.6
			c0.5,0.5,0.5,1.4,0,2C40.9,55.4,40.5,55.5,40.2,55.5z"/>
	</g>
	<g>
		<path fill="#BC311E" d="M33.7,54.9c-0.3,0-0.6-0.1-0.8-0.3l-4.4-4.4c-0.5-0.5-0.5-1.2,0-1.7c0.5-0.5,1.2-0.5,1.7,0l4.4,4.4
			c0.5,0.5,0.5,1.2,0,1.7C34.3,54.7,34,54.9,33.7,54.9z"/>
	</g>
	<g>
		<path fill="#BC311E" d="M67.3,28c-0.4,0-0.7-0.1-1-0.4L54.7,15.9c-0.5-0.5-0.5-1.4,0-2c0.5-0.5,1.4-0.5,2,0l11.6,11.6
			c0.5,0.5,0.5,1.4,0,2C68,27.9,67.7,28,67.3,28z"/>
	</g>
	<g>
		<path fill="#BC311E" d="M29.1,55.4c-0.4,0-0.7-0.1-1-0.4c-0.5-0.5-0.5-1.4,0-2l2.2-2.2c0.5-0.5,1.4-0.5,2,0c0.5,0.5,0.5,1.4,0,2
			L30.1,55C29.8,55.3,29.4,55.4,29.1,55.4z"/>
	</g>
	<g>
		<path fill="#BC311E" d="M66.9,21.3c-0.3,0-0.6-0.1-0.8-0.3l-4.4-4.4c-0.5-0.5-0.5-1.2,0-1.7c0.5-0.5,1.2-0.5,1.7,0l4.4,4.4
			c0.5,0.5,0.5,1.2,0,1.7C67.5,21.2,67.2,21.3,66.9,21.3z"/>
	</g>
	<g>
		<path fill="#BC311E" d="M65,19c-0.4,0-0.7-0.1-1-0.4c-0.5-0.5-0.5-1.4,0-2l2.2-2.2c0.5-0.5,1.4-0.5,2,0c0.5,0.5,0.5,1.4,0,2
			l-2.2,2.2C65.7,18.9,65.3,19,65,19z"/>
	</g>
</g>
<g>
	<g>
		<g>
			<path d="M-14.8-107.2h-35.3c-0.6,0-1.1-0.2-1.5-0.6c-0.4-0.4-0.6-1-0.6-1.6c0-0.4,0.3-35.6,0-56.3c-0.1-7,1.5-12.2,4.7-15.4
				c3.1-3.1,6.9-3.8,9.6-3.8c2.1,0,3.6,0.4,3.7,0.4c1,0.3,1.6,1.1,1.6,2.1c0,10.7,7.6,19.6,18.2,21.3c1.1,0.2,1.8,1.1,1.8,2.2v49.5
				C-12.6-108.2-13.6-107.2-14.8-107.2z M-47.9-111.6H-17v-45.6c-11.1-2.6-19.1-12-19.9-23.4c-1.9-0.2-5.1,0-7.6,2.4
				c-2.4,2.4-3.5,6.6-3.5,12.3C-47.6-148-47.8-119.6-47.9-111.6z"/>
		</g>
		<g>
			<path d="M28.5-107.2H-6.9c-1.2,0-2.2-1-2.2-2.2v-49.5c0-1.1,0.8-2,1.8-2.2C3.3-162.8,11-171.7,11-182.4c0-1.1,0.8-2,1.9-2.2
				c0.3,0,7.6-1.1,12.9,4.2c3.3,3.3,4.9,8.2,4.9,14.6c0,18.9,0,56.3,0,56.3c0,0.6-0.2,1.1-0.6,1.5C29.6-107.4,29-107.2,28.5-107.2z
				 M-4.7-111.6h30.9c0-8.3,0-38,0-54.1c0-5.2-1.2-9.1-3.7-11.5c-2.4-2.4-5.4-2.9-7.4-3c-0.9,11.3-8.9,20.6-19.9,23.1
				C-4.7-157.1-4.7-111.6-4.7-111.6z"/>
		</g>
		<g>
			<path d="M-10.6-163.5c-11,0-19.9-8.9-19.9-19.9s8.9-19.9,19.9-19.9c11,0,19.9,8.9,19.9,19.9S0.4-163.5-10.6-163.5z M-10.6-199
				c-8.6,0-15.5,7-15.5,15.5c0,8.6,7,15.5,15.5,15.5c8.6,0,15.5-7,15.5-15.5C4.9-192-2.1-199-10.6-199z"/>
		</g>
	</g>
	<g>
		<rect x="-12.8" y="-201.2" width="4.4" height="5.4"/>
	</g>
	<g>
		<rect x="1.7" y="-185.6" width="5.4" height="4.4"/>
	</g>
	<g>
		<rect x="-28.3" y="-185.6" width="5.4" height="4.4"/>
	</g>
	<g>
		<path d="M-10.4-181.5l2.3-2.5c0,0-9.8-8.6-10.7-7.6C-19.6-190.7-10.4-181.5-10.4-181.5"/>
	</g>
	<g>
		<circle cx="-10.2" cy="-183.5" r="3"/>
	</g>
</g>
<g>
	<g>
		<g>
			<path d="M-239.8-147.3c1.3-0.7,2.6-1.3,4-1.7c0-0.2-0.1-0.4-0.2-0.6C-237.4-148.9-238.6-148.2-239.8-147.3
				C-239.8-147.3-239.8-147.3-239.8-147.3z"/>
		</g>
		<g>
			<path d="M-252.3-113.9c-2.9,3.2-6.6,7.1-8,8.7c0,0-0.2,0.1-0.3,0.2c0-0.1-0.2-0.2-0.3-0.3c-7.8-8.9-20.8-24-20.8-37.8
				c0-11.7,9.5-21.2,21.2-21.2c8.4,0,15.6,4.9,19,11.9c1.2-0.8,2.4-1.5,3.7-2.1c-4.2-8.4-12.8-14.1-22.7-14.1
				c-14,0-25.4,11.2-25.4,25.4c0,14.8,12.7,30,22,40.6c0,0,1.5,1.7,3.4,1.7h0.2c1.8,0,3.3-1.7,3.4-1.7c1.1-1.3,4.1-4.5,6.6-7.2
				C-251.2-111-251.8-112.4-252.3-113.9z"/>
		</g>
	</g>
	<g>
		<path d="M-226-153.4c-14,0-25.4,11.2-25.4,25.4c0,14.8,12.7,30,22,40.6c0,0,1.5,1.7,3.4,1.7h0.2c1.8,0,3.3-1.7,3.4-1.7
			c9.3-10.6,22-25.8,22-40.6C-200.6-142.1-211.9-153.4-226-153.4 M-225.7-90.2c0,0-0.2,0.1-0.3,0.2c0-0.1-0.2-0.2-0.3-0.3
			c-7.8-8.9-20.8-24-20.8-37.8c0-11.7,9.5-21.2,21.2-21.2c11.7,0,21.2,9.5,21.2,21.2C-204.8-114.2-217.9-99.2-225.7-90.2"/>
	</g>
</g>
<g>
	<g>
		<path fill="#FFFFFF" d="M72.2,164.1c-4.3,0-7.8-3.5-7.8-7.8c0-4.3,3.5-7.8,7.8-7.8c4.3,0,7.8,3.5,7.8,7.8
			C80,160.6,76.5,164.1,72.2,164.1z M72.2,151c-2.9,0-5.3,2.4-5.3,5.3c0,2.9,2.4,5.3,5.3,5.3c2.9,0,5.3-2.4,5.3-5.3
			C77.5,153.4,75.1,151,72.2,151z"/>
	</g>
	<g>
		<path fill="#FFFFFF" d="M90.9,156.3c0,5.1-2.1,9.8-5.5,13.2l1.9,1.9c3.9-3.9,6.2-9.2,6.2-15.1c0-5.9-2.4-11.2-6.2-15.1l-1.9,1.9
			C88.8,146.5,90.9,151.2,90.9,156.3"/>
	</g>
	<g>
		<path fill="#FFFFFF" d="M53.6,156.3c0-5.1,2.1-9.8,5.5-13.2l-1.9-1.9c-3.9,3.9-6.3,9.2-6.3,15.1c0,5.9,2.4,11.2,6.3,15.1l1.9-1.9
			C55.7,166.1,53.6,161.4,53.6,156.3"/>
	</g>
	<g>
		<path fill="#FFFFFF" d="M84.2,156.3c0,3.3-1.3,6.3-3.5,8.5l1.9,1.9c2.7-2.7,4.3-6.3,4.3-10.4c0-4-1.6-7.7-4.3-10.4l-1.9,1.9
			C82.9,150,84.2,153,84.2,156.3"/>
	</g>
	<g>
		<path fill="#FFFFFF" d="M60.2,156.3c0-3.3,1.3-6.3,3.5-8.5l-1.9-1.9c-2.7,2.7-4.3,6.3-4.3,10.4c0,4,1.6,7.7,4.3,10.4l1.9-1.9
			C61.6,162.6,60.2,159.6,60.2,156.3"/>
	</g>
	<g>
		<path fill="#FFFFFF" d="M72.2,186.3c-0.7,0-1.2-0.6-1.2-1.2V164c0-0.7,0.6-1.2,1.2-1.2c0.7,0,1.2,0.6,1.2,1.2v21.1
			C73.4,185.8,72.9,186.3,72.2,186.3z"/>
	</g>
</g>
<g>
	<g>
		<path d="M-103.8-114.6h-52c-1.2,0-2.2-1-2.2-2.2v-52c0-1.2,1-2.2,2.2-2.2h52c1.2,0,2.2,1,2.2,2.2v52
			C-101.6-115.6-102.6-114.6-103.8-114.6z M-153.6-119h47.7v-47.7h-47.7V-119z"/>
	</g>
	<g>
		<path d="M-117.3-128.1h-25.1c-1.2,0-2.2-1-2.2-2.2v-25.1c0-1.2,1-2.2,2.2-2.2h25.1c1.2,0,2.2,1,2.2,2.2v25.1
			C-115.1-129-116.1-128.1-117.3-128.1z M-140.2-132.4h20.8v-20.8h-20.8V-132.4z"/>
	</g>
	<g>
		<path d="M-147.4-176.7c-1.2,0-2.2-1-2.2-2.2v-10.1c0-1.2,1-2.2,2.2-2.2c1.2,0,2.2,1,2.2,2.2v10.1
			C-145.2-177.7-146.2-176.7-147.4-176.7z"/>
	</g>
	<g>
		<path d="M-129.8-176.7c-1.2,0-2.2-1-2.2-2.2v-10.1c0-1.2,1-2.2,2.2-2.2c1.2,0,2.2,1,2.2,2.2v10.1
			C-127.6-177.7-128.6-176.7-129.8-176.7z"/>
	</g>
	<g>
		<path d="M-112.2-176.7c-1.2,0-2.2-1-2.2-2.2v-10.1c0-1.2,1-2.2,2.2-2.2c1.2,0,2.2,1,2.2,2.2v10.1
			C-110-177.7-111-176.7-112.2-176.7z"/>
	</g>
	<g>
		<path d="M-147.4-93.3c-1.2,0-2.2-1-2.2-2.2v-10.1c0-1.2,1-2.2,2.2-2.2c1.2,0,2.2,1,2.2,2.2v10.1
			C-145.2-94.3-146.2-93.3-147.4-93.3z"/>
	</g>
	<g>
		<path d="M-129.8-93.3c-1.2,0-2.2-1-2.2-2.2v-10.1c0-1.2,1-2.2,2.2-2.2c1.2,0,2.2,1,2.2,2.2v10.1
			C-127.6-94.3-128.6-93.3-129.8-93.3z"/>
	</g>
	<g>
		<path d="M-112.2-93.3c-1.2,0-2.2-1-2.2-2.2v-10.1c0-1.2,1-2.2,2.2-2.2c1.2,0,2.2,1,2.2,2.2v10.1C-110-94.3-111-93.3-112.2-93.3z"
			/>
	</g>
	<g>
		<path d="M-82.8-158.2h-10c-1.2,0-2.2-1-2.2-2.2c0-1.2,1-2.2,2.2-2.2h10c1.2,0,2.2,1,2.2,2.2C-80.6-159.2-81.6-158.2-82.8-158.2z"
			/>
	</g>
	<g>
		<path d="M-82.8-140.6h-10c-1.2,0-2.2-1-2.2-2.2c0-1.2,1-2.2,2.2-2.2h10c1.2,0,2.2,1,2.2,2.2C-80.6-141.6-81.6-140.6-82.8-140.6z"
			/>
	</g>
	<g>
		<path d="M-82.8-123h-10c-1.2,0-2.2-1-2.2-2.2c0-1.2,1-2.2,2.2-2.2h10c1.2,0,2.2,1,2.2,2.2C-80.6-124-81.6-123-82.8-123z"/>
	</g>
	<g>
		<path d="M-166.4-158.2h-10c-1.2,0-2.2-1-2.2-2.2c0-1.2,1-2.2,2.2-2.2h10c1.2,0,2.2,1,2.2,2.2
			C-164.2-159.2-165.2-158.2-166.4-158.2z"/>
	</g>
	<g>
		<path d="M-166.4-140.6h-10c-1.2,0-2.2-1-2.2-2.2c0-1.2,1-2.2,2.2-2.2h10c1.2,0,2.2,1,2.2,2.2
			C-164.2-141.6-165.2-140.6-166.4-140.6z"/>
	</g>
	<g>
		<path d="M-166.4-123h-10c-1.2,0-2.2-1-2.2-2.2c0-1.2,1-2.2,2.2-2.2h10c1.2,0,2.2,1,2.2,2.2C-164.2-124-165.2-123-166.4-123z"/>
	</g>
</g>
<g>
	<g>
		<g>
			<path d="M422.2-82.1l-12-6.9c-1-0.6-1.4-1.9-0.8-3c0.6-1,1.9-1.4,3-0.8l8.3,4.8c3.8-6.6,5.8-14.1,5.8-21.7
				c0-24-19.5-43.6-43.6-43.6c-15,0-28.8,7.6-36.8,20.2c-4.4,7-6.8,15-6.8,23.3c0,7.7,2,15.1,5.8,21.7l8.7-4.3
				c1.1-0.5,2.4-0.1,2.9,1c0.5,1.1,0.1,2.4-1,2.9l-12.3,6l-1-1.6c-4.9-7.7-7.5-16.6-7.5-25.7c0-9.1,2.6-18,7.4-25.7
				c8.9-13.9,24-22.3,40.5-22.3c26.4,0,47.9,21.5,47.9,47.9c0,9.2-2.6,18.2-7.6,25.9L422.2-82.1z"/>
		</g>
		<g>
			<path d="M411.9-126.1c-0.8,0-1.5-0.4-1.9-1.1c-0.6-1.1-0.2-2.4,0.9-3l9.1-5c1.1-0.6,2.4-0.2,3,0.9c0.6,1.1,0.2,2.4-0.9,3l-9.1,5
				C412.6-126.2,412.2-126.1,411.9-126.1z"/>
		</g>
		<g>
			<path d="M383-141.2c-1.2,0-2.2-1-2.2-2.2v-12.1c0-1.2,1-2.2,2.2-2.2s2.2,1,2.2,2.2v12.1C385.2-142.2,384.2-141.2,383-141.2z"/>
		</g>
		<g>
			<path d="M354-126.1c-0.4,0-0.8-0.1-1.1-0.3l-9.6-6c-1-0.6-1.3-2-0.7-3c0.6-1,2-1.3,3-0.7l9.6,6c1,0.6,1.3,2,0.7,3
				C355.4-126.4,354.7-126.1,354-126.1z"/>
		</g>
	</g>
	<g>
		<path d="M398.4-80.8h-29.2c-1.2,0-2.2-1-2.2-2.2s1-2.2,2.2-2.2h29.2c1.2,0,2.2,1,2.2,2.2S399.6-80.8,398.4-80.8z"/>
	</g>
	<path d="M383-120.2c-4.7,0-8.5,3.8-8.5,8.5c0,4.7,3.8,8.5,8.5,8.5c4.7,0,8.5-3.8,8.5-8.5C391.5-116.4,387.7-120.2,383-120.2z
		 M383-107.2c-2.4,0-4.4-2-4.4-4.4c0-2.4,2-4.4,4.4-4.4c2.4,0,4.4,2,4.4,4.4C387.4-109.2,385.4-107.2,383-107.2z"/>
	<g>
		<path d="M381.2-115.7c-1.3,0-2,0-2,0l0.1,1.6C379.7-114.8,380.4-115.3,381.2-115.7z"/>
		<path d="M384.8-115.7c1.6,0.7,2.7,2.2,2.7,4.1c0,2.4-2,4.4-4.4,4.4c-1.4,0-2.6-0.7-3.4-1.7l0.2,2.9c0,0,36.8-3.2,36.6-6.9
			C416.2-115.5,395.1-115.8,384.8-115.7z"/>
	</g>
</g>
<g>
	<g>
		<path d="M-81.2,22.2C-81.2,22.2-81.2,22.2-81.2,22.2c-4.4,0-8.4-2.8-9.9-7c-2-5.5,0.9-11.5,6.3-13.5c1.2-0.4,2.4-0.6,3.6-0.6
			c4.4,0,8.4,2.8,9.9,7c2,5.5-0.9,11.5-6.3,13.5C-78.8,22-80,22.2-81.2,22.2z M-81.2,5.4c-0.7,0-1.4,0.1-2.1,0.4
			c-3.2,1.2-4.9,4.7-3.7,7.9c0.9,2.4,3.2,4.1,5.8,4.1h0c0.7,0,1.4-0.1,2.1-0.4c3.2-1.2,4.9-4.7,3.7-7.9C-76.3,7.1-78.6,5.4-81.2,5.4
			z"/>
	</g>
	<g>
		<path d="M-106,98.5c-0.7,0-1.4-0.2-2.1-0.6c-5.3-3-2.7-7.7-1.3-10.2c0.4-0.7,0.8-1.4,1-2c1.9-4.8,4.7-13.2,5-14l3.4-12.8l4.2,1.1
			l-3.4,13c-0.1,0.4-3,9.2-5.1,14.4c-0.3,0.8-0.8,1.7-1.2,2.4c-1.9,3.4-1.5,3.6-0.4,4.3c1-0.6,3-4.1,3.9-5.9
			c4.2-7.5,4.7-8.4,4.7-8.4l0.4-0.7c1.4-2.7,1.9-3.7,2.8-6.3l1.5-4l4.1,1.5l-1.5,4c-1.1,3-1.6,4.1-3.4,7.6l-0.4,0.7l-0.1,0
			c-0.5,0.9-1.7,3.1-4.3,7.7c-2.5,4.5-4.2,7.3-6.7,8C-105.3,98.4-105.6,98.5-106,98.5z"/>
	</g>
	<g>
		<path d="M-78.1,98.2C-78.1,98.2-78.1,98.2-78.1,98.2c-1.9,0-4.5-1.3-8.8-10.9l-0.1-0.2l-3.1-9.3L-94.7,64
			c-6.4-2.8-6.5-7.8-5.6-12.8l2.7-13.2l-1.8,0.9l-7.1,8.2c-0.2,0.2-0.4,0.5-0.6,0.7c-1.8,2.4-3.4,4.3-5.4,4.3
			c-0.6,0-1.2-0.2-1.7-0.6c-4.1-3,0.7-11.7,0.9-12.1l0.1-0.1l7.8-12.6c1-1.4,3.5-2.9,5.2-3.2l10.1-2.9c1-0.1,2,0,3,0.3l8.5,2.1
			c3,0.8,3.6,5.4,3.1,7.3l-5.1,24.1l-0.8,3.2c0,3.7,0,3.8,0.4,7.5l5.4,15.7c1.5,5.3,3,14.7-1,16.8C-77,98.1-77.6,98.2-78.1,98.2z
			 M-82.9,85.7c2.1,4.6,3.5,6.7,4.3,7.6c0.3-1.7,0.3-5.5-1.2-10.9l-5.5-16l0-0.3c-0.4-4.1-0.4-4.2-0.4-8.4l0-0.3l0.9-3.7l5.2-24.1
			c0.1-0.5,0-1.6-0.3-2.1l-8.5-2.1c-0.3-0.1-0.6-0.2-0.8-0.1l-10,2.8c-0.6,0.1-2,1-2.4,1.4l-7.7,12.3c-0.8,1.4-1.4,3-1.7,4.3
			c0.2-0.3,0.4-0.6,0.6-0.8c0.3-0.3,0.5-0.6,0.7-0.9l0.1-0.1l7.7-8.8l10.7-5.6L-96,52.1c-0.8,4.7-0.4,6.7,3.8,8.3l1,0.4l5.4,15.8
			L-82.9,85.7z"/>
	</g>
	<g>
		<path d="M-55.8,57.3c-1.7,0-3.9-0.7-6.8-1.6c-0.4-0.1-0.9-0.3-1.2-0.4c-3.5-1.1-9.8-4-10.1-4.1l-0.5-0.2l-0.3-0.5
			c-0.7-0.9-0.8-1.1-0.9-1.2c-0.1-0.1-0.1-0.1-1-1.4l-0.1-0.2l-0.1-0.3l-3.8-9.1l4-1.7l3.7,8.8c0.5,0.7,0.7,0.9,0.7,1
			c0.1,0.1,0.2,0.3,0.7,0.9c1.6,0.7,6.3,2.8,9.1,3.7c0.4,0.1,0.8,0.3,1.3,0.4c0.8,0.3,2.2,0.7,3.5,1.1c-1.8-1.7-5.4-3.6-7.3-4.5
			c-1.4-0.7-2.5-1.3-3.4-1.9l-0.4-0.3l-4.4-7.6l-6.8-11.1l3.7-2.3l6.9,11.2l3.9,6.8c0.7,0.4,1.6,0.9,2.6,1.4
			c4.8,2.5,10.7,5.6,10.7,10.1c0,1-0.4,1.8-1.2,2.3C-54.1,57.1-54.9,57.3-55.8,57.3z"/>
	</g>
</g>
<g>
	<g>
		<path d="M1031.3,95.4c-24.3,0-44.1-19.8-44.1-44.1c0-24.3,19.8-44.1,44.1-44.1c24.3,0,44.1,19.8,44.1,44.1
			C1075.5,72.1,1056.6,95.4,1031.3,95.4z M1031.3,11.4c-21.9,0-39.8,17.8-39.8,39.8s17.8,39.8,39.8,39.8c22.4,0,39.8-21.4,39.8-39.8
			C1071.1,29.3,1053.2,11.4,1031.3,11.4z"/>
	</g>
	<g>
		<path d="M1049.2,65.8c-0.4,0-0.9-0.1-1.2-0.4L1030.1,53c-0.6-0.4-0.9-1.1-0.9-1.8V26.5c0-1.2,1-2.2,2.2-2.2s2.2,1,2.2,2.2v23.6
			l16.9,11.7c1,0.7,1.2,2,0.6,3C1050.5,65.5,1049.9,65.8,1049.2,65.8z"/>
	</g>
	<g>
		<path d="M1073.3,53.4h-6.6c-1.2,0-2.2-1-2.2-2.2c0-1.2,1-2.2,2.2-2.2h6.6c1.2,0,2.2,1,2.2,2.2
			C1075.5,52.4,1074.5,53.4,1073.3,53.4z"/>
	</g>
	<g>
		<path d="M996.1,53.4h-6.8c-1.2,0-2.2-1-2.2-2.2c0-1.2,1-2.2,2.2-2.2h6.8c1.2,0,2.2,1,2.2,2.2C998.3,52.4,997.4,53.4,996.1,53.4z"
			/>
	</g>
	<g>
		<path d="M1031.3,95.4c-1.2,0-2.2-1-2.2-2.2v-6.9c0-1.2,1-2.2,2.2-2.2s2.2,1,2.2,2.2v6.9C1033.5,94.4,1032.5,95.4,1031.3,95.4z"/>
	</g>
	<g>
		<path d="M1031.3,18.3c-1.2,0-2.2-1-2.2-2.2V9.3c0-1.2,1-2.2,2.2-2.2s2.2,1,2.2,2.2v6.9C1033.5,17.3,1032.5,18.3,1031.3,18.3z"/>
	</g>
</g>
<g id="Expanded_1_">
	<g>
		<g>
			<g>
				<path d="M1148.2,62.4c-0.7,0-1.3-0.3-1.7-0.8l-14.9-17.2c-0.8-1-0.7-2.4,0.2-3.2c0.9-0.8,2.4-0.7,3.2,0.2l12.9,14.9l10.7-16.6
					c0.7-1.1,2.1-1.4,3.1-0.7c1.1,0.7,1.4,2.1,0.7,3.1l-12.3,19.1c-0.4,0.6-1,1-1.8,1C1148.3,62.4,1148.3,62.4,1148.2,62.4z"/>
			</g>
		</g>
		<g>
			<g>
				<path d="M1236.9,68c-0.7,0-1.5-0.3-1.9-1l-11-16.3l-12.6,15.1c-0.8,1-2.2,1.1-3.2,0.3c-1-0.8-1.1-2.2-0.3-3.2l14.6-17.4
					c0.5-0.6,1.1-0.9,1.9-0.8c0.7,0,1.4,0.4,1.8,1l12.7,18.9c0.7,1,0.4,2.5-0.6,3.2C1237.7,67.9,1237.3,68,1236.9,68z"/>
			</g>
		</g>
		<g>
			<g>
				<path d="M1185.7,92.1c-10.6,0-20.9-4.1-28.7-11.8c-0.9-0.9-0.9-2.3,0-3.2c0.9-0.9,2.3-0.9,3.2,0c9,8.9,21.7,12.4,33.9,9.5
					c17.9-4.2,29.9-21.2,27.8-39.5c-0.1-1.2,0.8-2.4,2-2.5c1.3-0.2,2.4,0.8,2.5,2c2.4,20.6-11.1,39.6-31.2,44.4
					C1192.1,91.8,1188.9,92.1,1185.7,92.1z"/>
			</g>
		</g>
		<g>
			<g>
				<path d="M1148.2,62.4c-1,0-2-0.7-2.2-1.8c-2.5-10.6-0.7-21.6,5-30.9c5.7-9.3,14.8-15.8,25.4-18.3c14.7-3.5,30,1.4,40.1,12.7
					c0.8,0.9,0.7,2.4-0.2,3.2c-0.9,0.8-2.4,0.7-3.2-0.2c-8.9-10.1-22.6-14.4-35.6-11.3c-9.4,2.2-17.5,8-22.6,16.3
					c-5.1,8.3-6.7,18-4.4,27.5c0.3,1.2-0.5,2.5-1.7,2.7C1148.6,62.4,1148.4,62.4,1148.2,62.4z"/>
			</g>
		</g>
	</g>
</g>
<g>
	<g>
		<path d="M887.8,84.6c-17.1,0-35.6-3.7-35.6-11.8v-0.9l6.8-6.3V42.2c0-18,12-31.1,28.5-31.1c16.5,0,28.5,13.1,28.5,31.1v23.3
			l7.5,6.3v1C923.4,80.9,905,84.6,887.8,84.6z M856.9,73.6c1.7,2.6,12.5,6.7,31,6.7c18.3,0,29.1-4,30.9-6.6l-7.2-6.1V42.2
			c0-15.5-10.1-26.7-24.1-26.7s-24.1,11.2-24.1,26.7v25.3L856.9,73.6z"/>
	</g>
	<g>
		<path d="M896,86.6c0,3.6-3.8,6.6-8.6,6.6c-4.7,0-8.6-2.9-8.6-6.6H896z"/>
		<path d="M887.5,93.6c-5,0-9-3.1-9-7v-0.4h18v0.4C896.5,90.5,892.4,93.6,887.5,93.6z M879.4,87.1c0.3,3.2,3.8,5.7,8.1,5.7
			c4.3,0,7.8-2.5,8.1-5.7H879.4z"/>
	</g>
	<g>
		<path d="M890.9,13.3V9.9c0-1.7-1.5-3.1-3.5-3.1c-1.9,0-3.5,1.4-3.5,3.1v3.5"/>
		<path d="M891.4,13.3h-0.9V9.9c0-1.5-1.4-2.7-3-2.7c-1.7,0-3,1.2-3,2.7v3.5h-0.9V9.9c0-1.9,1.7-3.5,3.9-3.5c2.1,0,3.9,1.6,3.9,3.5
			L891.4,13.3L891.4,13.3z"/>
	</g>
</g>
</svg>
