<?xml version="1.0" encoding="utf-8"?>
<!-- Generator: Adobe Illustrator 16.2.1, SVG Export Plug-In . SVG Version: 6.00 Build 0)  -->
<!DOCTYPE svg PUBLIC "-//W3C//DTD SVG 1.1//EN" "http://www.w3.org/Graphics/SVG/1.1/DTD/svg11.dtd">
<svg version="1.1" id="Layer_1" xmlns="http://www.w3.org/2000/svg" xmlns:xlink="http://www.w3.org/1999/xlink" x="0px" y="0px"
	 width="44px" height="113px" viewBox="0 0 44 113" enable-background="new 0 0 44 113" xml:space="preserve">
<g>
	<path d="M35.004,99.259L5.311,94.891v-5.252l36.401,5.616v8.528l-36.401,5.615v-5.771L35.004,99.259z"/>
	<path d="M5.311,82.829v-5.72h36.401v5.72H5.311z"/>
	<path d="M21.432,60.21v-8.008h11.544c5.823,0,9.151,2.912,9.151,8.528c0,5.615-3.328,8.527-9.151,8.527h-18.93
		c-5.824,0-9.152-2.912-9.152-8.527c0-5.616,3.328-8.528,9.152-8.528h3.536v5.407h-3.9c-2.6,0-3.588,1.145-3.588,2.965
		s0.988,2.964,3.588,2.964H33.34c2.6,0,3.536-1.144,3.536-2.964s-0.937-2.965-3.536-2.965h-6.708v2.601H21.432z"/>
	<path d="M14.047,44.821c-5.824,0-9.152-3.068-9.152-8.685c0-5.617,3.328-8.685,9.152-8.685h18.93c5.823,0,9.151,3.068,9.151,8.685
		c0,5.617-3.328,8.685-9.151,8.685H14.047z M33.34,39.1c2.6,0,3.588-1.144,3.588-2.964c0-1.82-0.988-2.964-3.588-2.964H13.683
		c-2.6,0-3.588,1.144-3.588,2.964c0,1.82,0.988,2.964,3.588,2.964H33.34z"/>
	<path d="M41.712,8.682c-0.937,0.312-1.508,0.52-4.472,0.52H31.52c-3.379,0-4.627,1.144-4.627,3.744v1.976h14.819v5.72H5.311V12.01
		c0-5.928,2.756-8.477,8.372-8.477h2.86c3.744,0,6.188,1.196,7.384,3.744c1.196-2.86,3.952-3.796,7.749-3.796h5.616
		c1.769,0,3.067-0.052,4.42-0.624V8.682z M10.511,14.922h11.181v-2.236c0-2.132-0.937-3.432-3.849-3.432h-3.588
		c-2.6,0-3.744,0.884-3.744,2.912V14.922z"/>
</g>
</svg>
